<?xml version="1.0" encoding="UTF-8" standalone="no"?>
<!-- Created with Inkscape (http://www.inkscape.org/) -->

<svg
   width="207.88948mm"
   height="209.74023mm"
   viewBox="0 0 207.88948 209.74023"
   version="1.1"
   id="svg1"
   xml:space="preserve"
   inkscape:version="1.4.2 (ebf0e940, 2025-05-08)"
   sodipodi:docname="aifirstgcclogo.svg"
   xmlns:inkscape="http://www.inkscape.org/namespaces/inkscape"
   xmlns:sodipodi="http://sodipodi.sourceforge.net/DTD/sodipodi-0.dtd"
   xmlns="http://www.w3.org/2000/svg"
   xmlns:svg="http://www.w3.org/2000/svg"><sodipodi:namedview
     id="namedview1"
     pagecolor="#ffffff"
     bordercolor="#000000"
     borderopacity="0.25"
     inkscape:showpageshadow="2"
     inkscape:pageopacity="0.0"
     inkscape:pagecheckerboard="0"
     inkscape:deskcolor="#d1d1d1"
     inkscape:document-units="mm"
     inkscape:zoom="0.57745997"
     inkscape:cx="195.68456"
     inkscape:cy="442.45491"
     inkscape:window-width="1712"
     inkscape:window-height="988"
     inkscape:window-x="0"
     inkscape:window-y="35"
     inkscape:window-maximized="1"
     inkscape:current-layer="layer1" /><defs
     id="defs1" /><g
     inkscape:label="Layer 1"
     inkscape:groupmode="layer"
     id="layer1"
     transform="translate(-1.2576815,-24.529223)"><circle
       style="fill:#e5d5ff;stroke-width:2.38868"
       id="path2"
       cx="159.62178"
       cy="105.79968"
       r="24.286049" /><path
       style="fill:#2d1650;stroke-width:4.99881"
       d="m 58.358727,228.87928 c -1.335881,-0.98817 -3.52857,-3.07223 -4.872632,-4.63125 -1.344085,-1.55903 -3.244053,-4.64705 -4.222147,-6.86227 -1.192107,-2.69991 -1.877959,-5.47456 -2.080441,-8.41666 -0.197806,-2.87335 0.0383,-5.72818 0.68318,-8.26701 0.58932,-2.31997 1.673236,-5.09814 2.697922,-6.91479 0.941861,-1.67027 2.689252,-4.12792 3.883007,-5.4615 1.193757,-1.33356 3.397879,-3.18216 4.898037,-4.10799 1.500162,-0.92581 4.223571,-2.41029 6.052033,-3.29881 1.82846,-0.88852 4.484997,-2.47383 5.903401,-3.52294 1.418406,-1.04913 3.623085,-3.16052 4.899278,-4.69202 1.276236,-1.5315 3.131391,-4.48095 4.122596,-6.55437 1.212982,-2.53746 2.026815,-5.11248 2.489745,-7.87676 0.377985,-2.25889 0.519153,-6.13638 0.313397,-8.61676 -0.272692,-3.2869 -1.006049,-5.94902 -2.704365,-9.81733 -1.360201,-3.09806 -3.332232,-6.4573 -4.737197,-8.06944 -1.323809,-1.51904 -3.488987,-3.67339 -4.811503,-4.78743 -1.738045,-1.46411 -3.871806,-2.6003 -7.697652,-4.09891 -4.189481,-1.64104 -6.081412,-2.1059 -9.074319,-2.22945 -2.079709,-0.086 -5.165697,0.11099 -6.857783,0.43744 -1.692055,0.32649 -4.58747,1.11127 -6.434204,1.74401 -1.846736,0.63274 -4.955014,1.49462 -6.907316,1.91526 -1.952265,0.42065 -4.962514,0.75812 -6.689421,0.74986 -1.890941,-0.008 -4.908509,-0.58826 -7.586511,-1.45638 -2.737373,-0.88729 -5.392888,-2.09654 -6.908037,-3.14585 -1.353721,-0.93744 -3.5484998,-2.91413 -4.877329,-4.39271 -1.3544678,-1.50713 -3.2434213,-4.59024 -4.2992331,-7.01708 -1.0357518,-2.38079 -2.0174737,-5.74803 -2.1816007,-7.48273 -0.1639089,-1.7347 -0.1261504,-4.590262 0.084292,-6.345707 0.2105329,-1.755456 1.0130657,-4.793344 1.7835059,-6.75089 0.770423,-1.957512 2.2036361,-4.654457 3.1849392,-5.993193 0.9812281,-1.338758 2.8972045,-3.458393 4.2576027,-4.710309 1.361974,-1.253405 4.431534,-3.136373 6.830935,-4.190352 2.78433,-1.223084 5.734438,-2.008807 8.171558,-2.176423 2.097772,-0.144368 5.114746,-0.04327 6.704443,0.224818 1.589683,0.267923 3.95542,0.90817 5.257134,1.422717 1.301741,0.514535 3.684625,1.847951 5.295341,2.963068 1.610712,1.115163 3.826425,3.029536 4.923798,4.254189 1.097374,1.224653 3.494602,4.801513 5.32718,7.948569 1.83262,3.147056 4.390529,6.908031 5.684282,8.357721 1.293751,1.449714 3.640816,3.528022 5.215699,4.618482 1.574885,1.09049 4.111351,2.47073 5.636558,3.06721 1.525237,0.59652 4.430647,1.3584 6.456471,1.69308 2.025818,0.3347 5.934184,0.37641 8.685185,0.0926 3.667542,-0.37812 6.410163,-1.14138 10.280941,-2.86076 3.64277,-1.61804 6.203803,-3.20452 8.262353,-5.118225 1.64078,-1.52533 3.87401,-4.064167 4.96272,-5.641842 1.08875,-1.577653 2.40056,-3.933656 2.91514,-5.235517 0.51458,-1.301885 1.23259,-4.132238 1.59547,-6.289786 0.36294,-2.157466 0.50633,-5.680654 0.31869,-7.829249 -0.18763,-2.148571 -1.1297,-6.013417 -2.0935,-8.588539 -0.96383,-2.575099 -2.06887,-6.047672 -2.45564,-7.716817 -0.38679,-1.669144 -0.64329,-4.746029 -0.56997,-6.837525 0.10176,-2.904043 0.55893,-4.896951 1.93447,-8.433142 1.24401,-3.19827 2.49684,-5.504974 4.05049,-7.457847 1.23714,-1.555051 3.34424,-3.63194 4.68246,-4.615334 1.33823,-0.983347 3.71622,-2.328728 5.28438,-2.989731 1.56817,-0.661014 4.21241,-1.476112 5.8761,-1.811355 1.66368,-0.335255 4.55769,-0.569211 6.43123,-0.519415 2.60387,0.06876 4.65757,0.567618 8.71758,2.117027 4.28672,1.636102 5.87456,2.504167 8.23215,4.501413 1.60648,1.360957 3.90546,3.84739 5.10879,5.525419 1.20327,1.677993 2.73458,4.559008 3.40278,6.402217 0.66825,1.84321 1.3576,4.86865 1.53191,6.72319 0.17413,1.854539 -0.008,5.262422 -0.40551,7.573071 -0.59286,3.44808 -1.0802,4.819281 -2.71845,7.649219 -1.09807,1.896305 -3.35727,4.752918 -5.02083,6.347876 -1.94044,1.860459 -4.89716,3.839741 -8.24883,5.521865 -2.87327,1.442088 -6.63552,3.775951 -8.36049,5.186379 -1.725,1.410429 -4.10289,3.892606 -5.28421,5.515947 -1.18133,1.623329 -2.78165,4.541321 -3.55632,6.484375 -0.7767,1.942282 -1.63687,5.123039 -1.91581,7.066716 -0.279,1.94363 -0.29638,5.48154 -0.0389,7.86203 0.29424,2.7198 1.26193,6.16749 2.6036,9.27803 1.40819,3.26488 3.12495,6.08256 5.04305,8.27722 1.59947,1.83001 4.31328,4.25362 6.03078,5.38579 1.71753,1.13215 4.27587,2.51465 5.6852,3.07219 1.40948,0.55734 4.49086,1.25021 6.84761,1.53923 2.35687,0.28907 5.84696,0.33633 7.75583,0.10511 1.90889,-0.23124 6.03385,-1.28632 9.1665,-2.34462 3.13265,-1.05832 7.27008,-2.03753 9.19427,-2.1761 1.92414,-0.13867 5.21075,0.10511 7.30353,0.5416 2.177,0.45398 5.12859,1.47542 6.89856,2.38728 1.70149,0.8766 4.33844,2.71782 5.85986,4.0916 1.52145,1.37376 3.48784,3.56803 4.36979,4.8761 0.88199,1.30808 2.18782,3.94344 2.9019,5.85634 0.71408,1.9129 1.44307,5.10554 1.62008,7.09476 0.17665,1.98925 0.0817,5.02444 -0.21198,6.74496 -0.30404,1.78343 -1.29331,4.71212 -2.3002,6.81264 -0.97164,2.02639 -2.597,4.73415 -3.612,6.01721 -1.01491,1.28312 -3.37107,3.37996 -5.23571,4.6597 -2.0729,1.42263 -5.12644,2.81717 -7.85812,3.58868 -3.02019,0.85298 -5.91331,1.18514 -8.92915,1.02493 -3.16486,-0.16801 -5.53435,-0.65699 -8.15383,-1.6829 -2.03072,-0.79539 -4.85852,-2.29451 -6.28381,-3.33143 -1.42544,-1.03692 -3.4869,-2.89163 -4.58115,-4.12158 -1.09423,-1.22997 -3.43359,-4.76554 -5.19857,-7.85684 -1.76501,-3.09131 -4.04197,-6.61741 -5.06,-7.83583 -1.01796,-1.21841 -3.42904,-3.35278 -5.35797,-4.74303 -1.92892,-1.39028 -4.79563,-3.03239 -6.37053,-3.64919 -1.57483,-0.61673 -4.79164,-1.35788 -7.14848,-1.64694 -2.3568,-0.28901 -5.88425,-0.33614 -7.83869,-0.10464 -1.95454,0.2313 -5.27322,1.06117 -7.37494,1.84382 -2.10174,0.78261 -5.31584,2.59009 -7.14253,4.0166 -1.82667,1.42651 -4.33034,3.77135 -5.56373,5.21076 -1.28986,1.50528 -3.12969,4.52168 -4.3308,7.10031 -1.528277,3.28138 -2.263863,5.60694 -2.743666,8.67459 -0.360406,2.30526 -0.512348,5.76816 -0.33757,7.69535 0.174547,1.92722 1.162731,5.80418 2.195343,8.61549 1.032633,2.81133 2.130723,6.37942 2.440213,7.92911 0.30946,1.5497 0.54292,4.26673 0.51832,6.03797 -0.0242,1.77117 -0.37112,4.61073 -0.77045,6.3101 -0.43621,1.85583 -1.46547,4.36553 -2.576688,6.28457 -1.017711,1.75715 -3.26303,4.55869 -4.989143,6.22579 -2.230314,2.15404 -4.423671,3.59564 -7.58032,4.98226 -2.496106,1.09648 -6.020738,2.10251 -8.046077,2.29661 -1.982269,0.18995 -4.980035,0.22988 -6.661663,0.0888 -1.782302,-0.14964 -4.748575,-0.93487 -7.111943,-1.88285 -2.229834,-0.89466 -5.147395,-2.43478 -6.483318,-3.42293 z"
       id="path1"
       inkscape:transform-center-x="1.7491818"
       inkscape:transform-center-y="1.2839866"
       sodipodi:nodetypes="csssscsssssscssssssssssssssccscsssssssssssscssssccssssssssscssssscsssscscssscssssssssscccsssssssssssscssscscsssscssssccc" /></g></svg>
