<svg width="99" height="27" viewBox="0 0 99 27" fill="none" xmlns="http://www.w3.org/2000/svg">
<path d="M7.84766 8.93701C7.84331 8.93701 7.8405 8.93638 7.84863 8.93701C7.85354 8.93739 7.86754 8.93779 7.88379 8.93799V8.93896C9.09859 8.95871 10.082 9.95234 10.082 11.1714C10.082 12.4029 9.07939 13.4057 7.84766 13.4058C7.19693 13.4058 6.61045 13.1233 6.2002 12.6753C5.8363 12.2766 5.6133 11.7498 5.61328 11.1714C5.61328 9.93956 6.61583 8.93701 7.84766 8.93701ZM7.84766 9.83154C7.10873 9.83154 6.50781 10.4325 6.50781 11.1714C6.50785 11.9104 7.10874 12.5112 7.84766 12.5112C8.58666 12.5112 9.18746 11.9103 9.1875 11.1714C9.1875 10.4325 8.58667 9.83158 7.84766 9.83154Z" fill="#33CCFF" stroke="#33CCFF" stroke-width="0.502326"/>
<path d="M13.5522 0.911133C20.0565 1.1749 25.3052 6.39083 25.6206 12.8818L25.6362 13.5C25.6362 13.7714 25.6268 14.0405 25.6099 14.3066L25.5952 14.542H21.6704C21.1835 18.603 17.8921 21.809 13.7925 22.1641V26.0791L13.5522 26.0898C13.3819 26.0969 13.2096 26.1016 13.0356 26.1016C12.7295 26.1016 12.4261 26.0899 12.1265 26.0684C5.60066 25.6009 0.435059 20.1425 0.435059 13.5C0.435303 6.85723 5.60086 1.40109 12.1265 0.933594V0.932617C12.4261 0.91108 12.7295 0.899414 13.0356 0.899414C13.2096 0.899415 13.3819 0.904056 13.5522 0.911133ZM11.894 2.86523C6.52859 3.43709 2.33374 7.98537 2.3335 13.5C2.3335 19.0143 6.52845 23.5629 11.894 24.1348V2.86523ZM13.7925 20.2568C16.8433 19.9175 19.2917 17.5539 19.7563 14.542H13.7925V20.2568ZM13.7925 12.6426H23.6997C23.2812 7.39114 19.0573 3.19893 13.7925 2.8291V12.6426Z" fill="#33CCFF" stroke="#33CCFF" stroke-width="0.502326"/>
<path d="M48.5933 20.1716C47.8759 20.1716 47.2947 19.5913 47.296 18.8738C47.2988 17.3183 47.3004 14.7411 47.2829 13.2778C47.2751 12.6426 47.217 11.9919 47.0633 11.3777C46.6892 9.8815 45.6407 9.12793 44.083 9.14292C42.5332 9.15802 41.4607 9.97302 41.1268 11.4713C40.9918 12.0781 40.9451 12.7141 40.9385 13.3379C40.9235 14.7732 40.9247 17.3138 40.9272 18.86C40.9284 19.5827 40.3431 20.1671 39.6204 20.1671C38.8978 20.1671 38.3126 19.5823 38.3137 18.8597C38.3166 17.3057 38.3178 14.7432 38.3011 13.2852C38.2942 12.662 38.2345 12.0252 38.0897 11.4208C37.7265 9.90471 36.676 9.13241 35.1041 9.14292C33.5514 9.15271 32.4874 9.95802 32.1454 11.4652C32.0052 12.0838 31.9506 12.7324 31.9434 13.3684C31.9271 14.7968 31.9287 17.3268 31.9312 18.8653C31.9327 19.5827 31.3516 20.1631 30.6338 20.1631C29.9217 20.1631 29.3425 19.5917 29.3365 18.8796C29.323 17.2874 29.3109 14.5967 29.3409 13.0561C29.3576 12.2098 29.4528 11.3436 29.6683 10.5277C30.2784 8.21736 32.1922 6.73698 34.5856 6.61256C36.0066 6.53854 37.3547 6.75894 38.4788 7.69721C38.9144 8.06036 39.2569 8.53574 39.6567 8.97624C39.6363 8.99289 39.6697 8.9778 39.6843 8.95219C40.5172 7.50117 41.8251 6.78622 43.4389 6.63568C45.3699 6.45598 47.1146 6.90127 48.4574 8.41257C49.3546 9.42236 49.7955 10.6526 49.8353 11.9638C49.8926 13.8537 49.8992 17.0909 49.8902 18.8832C49.8869 19.5973 49.307 20.1716 48.5933 20.1716Z" fill="#33CCFF"/>
<path d="M53.3916 20.166C52.6831 20.166 52.1094 19.5917 52.1094 18.8836V8.12708C52.1094 7.4186 52.6831 6.84473 53.3916 6.84473C54.1001 6.84473 54.6739 7.4186 54.6739 8.12708V18.8836C54.6739 19.5917 54.1001 20.166 53.3916 20.166Z" fill="#33CCFF"/>
<path d="M53.3839 4.95814C52.4819 4.9545 51.7979 4.26433 51.7979 3.35782C51.7979 2.42611 52.4823 1.75344 53.4197 1.76479C54.2917 1.77541 54.9737 2.47536 54.9744 3.36032C54.9749 4.25985 54.2766 4.96137 53.3839 4.95814Z" fill="#33CCFF"/>
<path d="M95.1389 13.4896C95.1341 11.0189 93.2771 9.13505 90.8541 9.14203C88.4256 9.14932 86.5793 11.034 86.5821 13.5033C86.5846 15.9659 88.4452 17.8521 90.8695 17.8504C93.2933 17.8493 95.1438 15.9585 95.1389 13.4896ZM86.633 18.6044V24.2022C86.633 24.9256 86.0466 25.5121 85.3231 25.5121C84.602 25.5121 84.0168 24.9318 84.0127 24.2111C83.9993 21.7645 83.9826 16.462 84.0004 13.5139C84.0212 10.1575 86.2429 7.42333 89.4441 6.7441C93.7371 5.83353 97.7881 9.14932 97.7531 13.5457C97.7234 17.3023 94.7099 20.3459 90.9582 20.3988C89.3733 20.4216 88.008 19.8855 86.8933 18.7456C86.8343 18.6859 86.807 18.5956 86.7647 18.5195C86.7208 18.5479 86.6769 18.5764 86.633 18.6044Z" fill="#33CCFF"/>
<path d="M58.3914 1.48779C59.1027 1.48779 59.6793 2.06447 59.6793 2.77577V7.8798C59.7346 7.88834 59.7521 7.89605 59.7566 7.89115C61.1499 6.40348 62.893 6.39661 64.6804 6.81098C66.9237 7.33071 68.3829 9.05347 68.7009 11.4489C68.7852 12.0825 68.8311 12.7251 68.8356 13.3636C68.8465 14.8268 68.8409 17.3349 68.8343 18.8616C68.8311 19.5811 68.2467 20.1618 67.5273 20.1618C66.8041 20.1618 66.2185 19.5766 66.2201 18.8531C66.2242 17.2963 66.227 14.728 66.2026 13.2685C66.1913 12.5734 66.1038 11.8588 65.9147 11.1927C65.5584 9.93926 64.6064 9.2263 63.311 9.17018C62.8279 9.14905 62.3208 9.17018 61.8583 9.29668C60.6269 9.63338 60.0299 10.5599 59.8164 11.7544C59.724 12.2705 59.6915 12.8028 59.6879 13.3282C59.6785 14.7707 59.6793 17.3296 59.6809 18.8755C59.6813 19.5876 59.1042 20.1626 58.3921 20.1626C57.6804 20.1626 57.1033 19.5859 57.1033 18.8742V2.77577C57.1033 2.06447 57.6801 1.48779 58.3914 1.48779Z" fill="#33CCFF"/>
<path d="M71.9544 6.83594H71.9561C72.6738 6.83594 73.255 7.41637 73.2546 8.1337C73.253 9.66895 73.2526 12.1917 73.2616 13.6175C73.2648 14.1304 73.2989 14.6489 73.3819 15.1545C73.7028 17.0996 75.1518 18.1262 77.1052 17.8187C78.6027 17.5828 79.5116 16.5852 79.7096 14.936C79.7605 14.5135 79.7853 14.0852 79.7865 13.6591C79.7918 12.2246 79.7914 9.69582 79.791 8.15442C79.7906 7.43219 80.3762 6.84822 81.0989 6.84822C81.8191 6.84822 82.4039 7.42855 82.4064 8.1488C82.4125 9.7056 82.4178 12.2832 82.4137 13.7534C82.4113 14.7871 82.3234 15.8129 81.974 16.7951C81.2185 18.9179 79.6575 20.0497 77.4432 20.3446C76.4159 20.4813 75.365 20.4101 74.384 20.077C72.3485 19.3856 71.2122 17.9098 70.8288 15.8352C70.7132 15.2093 70.6624 14.5639 70.6567 13.9267C70.6425 12.3865 70.6473 9.71612 70.6538 8.12808C70.6571 7.4123 71.2382 6.83594 71.9544 6.83594Z" fill="#33CCFF"/>
</svg>
