<svg viewBox="0 0 80.96 37" xmlns="http://www.w3.org/2000/svg" id="uuid-1cff39ed-f820-4011-ac9d-48c2b33db2d8">
  <path fill-rule="evenodd" fill="#de3341" d="M30.74,10.12c0,1.47-.95,2.65-2.75,2.78l3.04,3.23c.08.09.02.23-.1.23h-1.78s-.09-.02-.12-.05l-3.13-3.41h-.09v3.33c0,.08-.06.14-.14.14h-1.49c-.08,0-.14-.06-.14-.14V7.47c0-.08.06-.14.14-.14h3.83c.95,0,2.72.66,2.72,2.79ZM25.82,8.89v2.62h1.53c.56,0,.99-.12,1.27-.35.28-.24.43-.56.43-.98s-.13-.71-.39-.94c-.26-.23-.63-.34-1.13-.34h-1.71ZM30.88,12.91c0-1.99,1.61-3.6,3.6-3.6s3.6,1.61,3.6,3.6-1.61,3.6-3.6,3.6-3.6-1.61-3.6-3.6ZM32.46,12.91c0,1.12.9,2.02,2.02,2.02s2.02-.9,2.02-2.02-.9-2.02-2.02-2.02-2.02.9-2.02,2.02ZM63.56,16.25v-1.12h0c0-.09-.08-.15-.17-.13-.46.11-1.47.11-1.47-1.11v-3.09h1.5c.08,0,.14-.06.14-.14v-1.09c0-.08-.06-.14-.14-.14h-1.5v-1.96c0-.11-.12-.17-.21-.12l-1.48.92s-.06.07-.06.12v1.03h-.95c-.08,0-.14.06-.14.14v1.09c0,.08.06.14.14.14h.95v3.22c0,2.13,1.81,2.49,2.5,2.49.29,0,.51-.05.7-.1h0s.05-.01.08-.02c.06-.01.11-.07.11-.13ZM52.46,16.37c.12,0,.18-.14.1-.23h0s-3.02-3.23-3.02-3.23l2.75-3.25c.08-.09.01-.23-.11-.23h-1.72s-.09.02-.12.06l-2.25,2.69h-.1v-4.7c0-.11-.12-.17-.21-.12l-1.48.93s-.06.07-.06.12v7.83c0,.08.06.14.14.14h1.48c.08,0,.14-.06.14-.14v-2.63h.08l2.48,2.74s.04.03.07.03h1.84ZM53.7,9.79c.56-.32,1.17-.48,1.82-.48,1.43,0,2.51.77,3.06,1.7.59.98.47,2,.45,2.16h0c0,.08-.03.18-.05.26-.02.06-.07.1-.13.1h-5.28c.05.21.37,1.54,1.96,1.54.7,0,1.24-.3,1.49-.58.03-.03.07-.05.12-.05h1.44c.1,0,.17.11.12.2-.31.6-.9,1.2-1.71,1.56-.44.2-.93.3-1.44.3-.67,0-1.29-.16-1.85-.47-.95-.54-1.82-1.59-1.82-3.12h0c0-.17-.02-2.05,1.84-3.11ZM55.52,10.73c-1,0-1.76.66-1.97,1.59h3.85c-.06-.27-.45-1.59-1.88-1.59ZM42.2,14.93c-1.12,0-2.02-.9-2.02-2.02h0c0-1.12.9-2.02,2.02-2.02.88,0,1.62.56,1.9,1.34.02.05.07.09.13.09h1.35c.15,0,.14-.16.13-.18-.01-.07-.04-.17-.06-.24-.44-1.49-1.82-2.59-3.45-2.59-1.99,0-3.6,1.61-3.6,3.6s1.61,3.6,3.6,3.6c1.71,0,3.15-1.2,3.51-2.8h0c.02-.09-.05-.17-.14-.17h-1.35c-.06,0-.11.03-.13.09-.29.76-1.03,1.31-1.89,1.31ZM5.6,26.94v-8.81h0c0-2.8,2.22-5.14,5.01-5.18,2.86-.05,5.19,2.25,5.19,5.1,0,2.24-1.44,4.14-3.45,4.83-.2.07-.27.33-.12.48l3.59,3.82c.1.1.25.12.37.05,3.12-1.87,5.21-5.28,5.21-9.19,0-5.96-4.87-10.79-10.86-10.7C4.67,7.42-.07,12.3,0,18.17c.05,3.82,2.1,7.16,5.15,9.01.2.12.45-.02.45-.25ZM51.58,25.9v1.12c0,.06-.04.12-.11.13-.03,0-.05.01-.08.02-.19.04-.42.1-.7.1-.7,0-2.5-.36-2.5-2.49v-3.22h-.95c-.08,0-.14-.06-.14-.14v-1.09c0-.08.06-.14.14-.14h.95v-1.03s.02-.09.06-.12l1.48-.92c.09-.06.21,0,.21.12v1.96h1.5c.08,0,.14.06.14.14v1.09c0,.08-.06.14-.14.14h-1.5v3.09c0,1.22,1,1.22,1.46,1.11.09-.02.17.04.17.13ZM65.6,27c0,.08-.06.14-.14.14h-1.23c-.08,0-.14-.06-.14-.14v-.67h-.05c-.24.29-.91.93-2.13.93-.69,0-1.31-.22-1.77-.61-.45-.39-.7-.91-.7-1.48,0-.68.33-1.26.95-1.67.61-.4,1.46-.61,2.45-.61h1.11v-.12c0-.79-.5-1.28-1.3-1.28-.86,0-1.13.54-1.21.78-.02.07-.09.12-.17.12h-1.32c-.11,0-.19-.1-.17-.21.06-.31.24-.92.82-1.42.53-.46,1.24-.7,2.06-.7,1.78,0,2.93,1.11,2.93,2.83v4.09ZM61.11,25.06c0,.54.43.86,1.14.86.98,0,1.71-.6,1.71-1.44v-.42h-1.1c-1.13,0-1.76.35-1.76,1ZM29.07,24.84l-3.35-6.66s-.07-.08-.12-.08h-1.41c-.08,0-.14.06-.14.14v8.76c0,.08.06.14.14.14h1.41c.08,0,.14-.06.14-.14v-5.41l2.75,5.46s.07.08.12.08h.78c.05,0,.1-.03.12-.08l2.8-5.52v5.47c0,.08.06.14.14.14h1.41c.08,0,.14-.06.14-.14v-8.76c0-.08-.06-.14-.14-.14h-1.32c-.05,0-.1.03-.12.08l-3.35,6.66ZM57.32,20.33c0-.08.06-.14.14-.14h0s1.23,0,1.23,0c.08,0,.14.06.14.14v6.32c0,.9-.31,1.66-.91,2.19-.59.53-1.44.82-2.44.82-2.32,0-3.05-1.52-3.23-2.05-.03-.09.04-.18.13-.18h1.4c.05,0,.1.03.12.07.1.2.49.74,1.55.74s1.73-.6,1.73-1.58v-.65h0c-.19.25-.91.89-1.98.89-1.81,0-3.29-1.53-3.29-3.42,0-.93.35-1.79.98-2.44.62-.63,1.44-.98,2.31-.98,1.06,0,1.81.59,2.08.92h.05v-.66ZM53.54,23.49c0,1.12.8,1.99,1.83,1.99s1.81-.89,1.81-1.99-.8-1.99-1.81-1.99-1.83.88-1.83,1.99ZM71.73,20.2c-.08,0-.14.06-.14.14v.66h-.05c-.26-.33-1.01-.92-2.08-.92-.87,0-1.69.35-2.31.98-.63.64-.98,1.51-.98,2.44,0,1.88,1.48,3.42,3.29,3.42,1.07,0,1.79-.64,1.98-.89h0v.65c0,.97-.66,1.58-1.73,1.58s-1.45-.54-1.55-.74c-.02-.04-.07-.07-.12-.07h-1.4c-.09,0-.16.09-.13.18.18.53.91,2.05,3.23,2.05,1,0,1.85-.28,2.44-.82.59-.53.91-1.29.91-2.19v-6.32c0-.08-.06-.14-.14-.14h-1.23ZM69.64,25.49c-1.02,0-1.83-.88-1.83-1.99s.8-1.99,1.83-1.99,1.81.88,1.81,1.99-.81,1.99-1.81,1.99ZM34.6,23.67c0-1.99,1.61-3.6,3.6-3.6s3.6,1.61,3.6,3.6-1.61,3.6-3.6,3.6-3.6-1.61-3.6-3.6ZM36.17,23.67c0,1.12.9,2.02,2.02,2.02s2.02-.9,2.02-2.02-.9-2.02-2.02-2.02-2.02.9-2.02,2.02ZM80.43,21.77c-.55-.93-1.64-1.7-3.06-1.7-.65,0-1.26.16-1.82.48-1.86,1.06-1.84,2.94-1.84,3.11h0c0,1.54.87,2.59,1.82,3.13.56.31,1.18.47,1.85.47.51,0,1-.1,1.44-.3.82-.37,1.4-.96,1.71-1.56.05-.09-.02-.2-.12-.2h-1.45s-.08.02-.11.05c-.25.28-.78.59-1.49.59-1.59,0-1.91-1.33-1.96-1.54h5.28c.06,0,.12-.04.13-.1.02-.08.04-.18.05-.25h0c.02-.18.14-1.19-.45-2.17h0ZM75.4,23.08c.21-.93.97-1.59,1.97-1.59,1.43,0,1.83,1.31,1.88,1.59h-3.85ZM42.52,20.33c0-.08.06-.14.14-.14h1.23c.08,0,.14.06.14.14v.66h.05c.27-.35.93-.92,1.81-.92.23,0,.42.02.53.04.07.01.11.07.11.14v1.13c0,.11-.09.19-.2.18-.12-.02-.28-.03-.49-.03-1.02,0-1.66.65-1.66,1.69v3.78c0,.08-.06.14-.14.14h-1.38c-.08,0-.14-.06-.14-.14v-6.67Z"></path>
</svg>