<svg width="54" height="37" viewBox="0 0 54 37" fill="none" xmlns="http://www.w3.org/2000/svg">
<path d="M37.7581 18.2472C37.7581 14.5107 39.6067 12.1115 42.4386 12.1115C45.2704 12.1115 47.119 14.5107 47.119 18.2472C47.119 21.9837 45.2704 24.4222 42.4386 24.4222C39.6067 24.4222 37.7581 21.9444 37.7581 18.2472ZM30.5211 8.06039C26.6667 8.06039 24.3461 10.9316 24.3461 16.0447V28.4734H30.5605V8.06039H30.5211ZM22.6942 8.06039C16.4012 8.06039 12.9007 9.8303 5.62439 17.2639L0 23.0063V28.4734H23.1269V22.3377H9.32154L23.1269 8.06039H22.6942ZM31.7798 36.3396H37.9941V24.3829C38.9774 27.3721 41.6126 29.0633 44.8378 29.0633C49.9115 29.0633 53.5693 24.6582 53.5693 18.2472C53.5693 11.8362 49.9115 7.43108 44.8378 7.43108C41.6126 7.43108 38.9774 9.16166 37.9941 12.1115V8.06039H31.7798V36.3396ZM30.5605 0.941406H24.3461V7.0771H30.5605V0.941406ZM23.1269 0.941406H0.471977V7.0771H23.1269V0.941406Z" fill="black"></path>
</svg>
