<?xml version="1.0" encoding="UTF-8" standalone="no"?>
<!-- LinkedIn Header/Banner - 1584x396 with white background -->
<svg
   width="1584"
   height="396"
   viewBox="0 0 1584 396"
   version="1.1"
   xmlns="http://www.w3.org/2000/svg">

  <defs>
    <style>
      @import url('https://fonts.googleapis.com/css2?family=Outfit:wght@700&amp;family=DM+Sans:wght@500&amp;display=swap');
    </style>
  </defs>

  <!-- White background -->
  <rect width="1584" height="396" fill="#ffffff"/>

  <!-- Logo icon centered -->
  <g transform="translate(685, 20) scale(0.75)">
    <circle
       style="fill:#e5d5ff"
       cx="158.36"
       cy="81.27"
       r="24.29" />
    <path
       style="fill:#2d1650"
       d="m 57.101,204.35 c -1.336,-0.988 -3.529,-3.072 -4.873,-4.631 -1.344,-1.559 -3.244,-4.647 -4.222,-6.862 -1.192,-2.7 -1.878,-5.475 -2.08,-8.417 -0.198,-2.873 0.038,-5.728 0.683,-8.267 0.589,-2.32 1.673,-5.098 2.698,-6.915 0.942,-1.67 2.689,-4.128 3.883,-5.461 1.194,-1.334 3.398,-3.182 4.898,-4.108 1.5,-0.926 4.224,-2.41 6.052,-3.299 1.828,-0.889 4.485,-2.474 5.903,-3.523 1.418,-1.049 3.623,-3.161 4.899,-4.692 1.276,-1.531 3.131,-4.481 4.123,-6.554 1.213,-2.537 2.027,-5.112 2.49,-7.877 0.378,-2.259 0.519,-6.136 0.313,-8.617 -0.273,-3.287 -1.006,-5.949 -2.704,-9.817 -1.36,-3.098 -3.332,-6.457 -4.737,-8.069 -1.324,-1.519 -3.489,-3.673 -4.812,-4.787 -1.738,-1.464 -3.872,-2.6 -7.698,-4.099 -4.189,-1.641 -6.081,-2.106 -9.074,-2.229 -2.08,-0.086 -5.166,0.111 -6.858,0.437 -1.692,0.327 -4.587,1.111 -6.434,1.744 -1.847,0.633 -4.955,1.495 -6.907,1.915 -1.952,0.421 -4.963,0.758 -6.689,0.75 -1.891,-0.008 -4.909,-0.588 -7.587,-1.456 -2.737,-0.887 -5.393,-2.097 -6.908,-3.146 -1.354,-0.937 -3.548,-2.914 -4.877,-4.393 -1.354,-1.507 -3.243,-4.59 -4.299,-7.017 -1.036,-2.381 -2.017,-5.748 -2.182,-7.483 -0.164,-1.735 -0.126,-4.59 0.084,-6.346 0.211,-1.755 1.013,-4.793 1.784,-6.751 0.77,-1.957 2.204,-4.654 3.185,-5.993 0.981,-1.339 2.897,-3.458 4.258,-4.71 1.362,-1.253 4.431,-3.136 6.831,-4.19 2.784,-1.223 5.734,-2.009 8.171,-2.176 2.098,-0.144 5.115,-0.043 6.705,0.225 1.59,0.268 3.955,0.908 5.257,1.423 1.302,0.514 3.685,1.848 5.295,2.963 1.611,1.115 3.826,3.03 4.924,4.254 1.097,1.225 3.495,4.802 5.327,7.949 1.833,3.147 4.391,6.908 5.684,8.358 1.294,1.45 3.641,3.528 5.216,4.618 1.575,1.09 4.111,2.471 5.637,3.067 1.525,0.597 4.43,1.358 6.456,1.693 2.026,0.335 5.934,0.376 8.685,0.093 3.668,-0.378 6.41,-1.141 10.281,-2.861 3.643,-1.618 6.204,-3.204 8.262,-5.118 1.641,-1.525 3.874,-4.064 4.963,-5.642 1.089,-1.578 2.401,-3.934 2.915,-5.236 0.515,-1.302 1.233,-4.132 1.595,-6.29 0.363,-2.157 0.506,-5.68 0.319,-7.829 -0.188,-2.149 -1.13,-6.013 -2.094,-8.589 -0.964,-2.575 -2.069,-6.048 -2.456,-7.717 -0.387,-1.669 -0.643,-4.746 -0.57,-6.837 0.102,-2.904 0.559,-4.897 1.934,-8.433 1.244,-3.198 2.497,-5.505 4.05,-7.458 1.237,-1.555 3.344,-3.632 4.683,-4.615 1.338,-0.983 3.716,-2.329 5.284,-2.99 1.568,-0.661 4.212,-1.476 5.876,-1.811 1.664,-0.335 4.558,-0.569 6.431,-0.519 2.604,0.069 4.658,0.568 8.718,2.117 4.287,1.636 5.875,2.504 8.232,4.501 1.606,1.361 3.905,3.847 5.109,5.525 1.203,1.678 2.735,4.559 3.403,6.402 0.668,1.843 1.358,4.869 1.532,6.723 0.174,1.855 -0.008,5.262 -0.406,7.573 -0.593,3.448 -1.08,4.819 -2.718,7.649 -1.098,1.896 -3.357,4.753 -5.021,6.348 -1.94,1.86 -4.897,3.84 -8.249,5.522 -2.873,1.442 -6.635,3.776 -8.36,5.186 -1.725,1.41 -4.103,3.893 -5.284,5.516 -1.181,1.623 -2.782,4.541 -3.556,6.484 -0.777,1.942 -1.637,5.123 -1.916,7.067 -0.279,1.944 -0.296,5.482 -0.039,7.862 0.294,2.72 1.262,6.167 2.604,9.278 1.408,3.265 3.125,6.083 5.043,8.277 1.599,1.83 4.313,4.254 6.031,5.386 1.718,1.132 4.276,2.515 5.685,3.072 1.409,0.557 4.491,1.25 6.848,1.539 2.357,0.289 5.847,0.336 7.756,0.105 1.909,-0.231 6.034,-1.286 9.166,-2.345 3.133,-1.058 7.27,-2.037 9.194,-2.176 1.924,-0.139 5.211,0.105 7.304,0.542 2.177,0.454 5.129,1.475 6.899,2.387 1.701,0.877 4.338,2.718 5.86,4.092 1.521,1.374 3.488,3.568 4.37,4.876 0.882,1.308 2.188,3.943 2.902,5.856 0.714,1.913 1.443,5.106 1.62,7.095 0.177,1.989 0.082,5.024 -0.212,6.745 -0.304,1.783 -1.293,4.712 -2.3,6.813 -0.972,2.026 -2.597,4.734 -3.612,6.017 -1.015,1.283 -3.371,3.38 -5.236,4.66 -2.073,1.423 -5.126,2.817 -7.858,3.589 -3.02,0.853 -5.913,1.185 -8.929,1.025 -3.165,-0.168 -5.534,-0.657 -8.154,-1.683 -2.031,-0.795 -4.859,-2.294 -6.284,-3.331 -1.425,-1.037 -3.487,-2.892 -4.581,-4.122 -1.094,-1.23 -3.434,-4.766 -5.199,-7.857 -1.765,-3.091 -4.042,-6.617 -5.06,-7.836 -1.018,-1.218 -3.429,-3.353 -5.358,-4.743 -1.929,-1.39 -4.796,-3.032 -6.371,-3.649 -1.575,-0.617 -4.791,-1.358 -7.148,-1.647 -2.357,-0.289 -5.884,-0.336 -7.839,-0.105 -1.954,0.231 -5.273,1.061 -7.375,1.844 -2.102,0.783 -5.316,2.59 -7.143,4.017 -1.827,1.426 -4.33,3.771 -5.564,5.211 -1.29,1.505 -3.13,4.522 -4.331,7.1 -1.528,3.281 -2.264,5.607 -2.744,8.675 -0.36,2.305 -0.512,5.768 -0.338,7.695 0.175,1.927 1.163,5.804 2.195,8.615 1.033,2.811 2.131,6.379 2.44,7.929 0.309,1.55 0.543,4.267 0.518,6.038 -0.024,1.771 -0.371,4.611 -0.77,6.31 -0.436,1.856 -1.465,4.366 -2.577,6.285 -1.018,1.757 -3.263,4.559 -4.989,6.226 -2.23,2.154 -4.424,3.596 -7.58,4.982 -2.496,1.096 -6.021,2.103 -8.046,2.297 -1.982,0.19 -4.98,0.23 -6.662,0.089 -1.782,-0.15 -4.749,-0.935 -7.112,-1.883 -2.23,-0.895 -5.147,-2.435 -6.483,-3.423 z" />
  </g>

  <!-- Orbis360 text - Outfit Bold -->
  <text
    x="792"
    y="280"
    text-anchor="middle"
    font-family="Outfit, system-ui, sans-serif"
    font-size="60"
    font-weight="700"
    letter-spacing="-0.02em"
    fill="#2d1650">Orbis360</text>

  <!-- AI First GCC subtext - DM Sans Medium -->
  <text
    x="792"
    y="340"
    text-anchor="middle"
    font-family="DM Sans, system-ui, sans-serif"
    font-size="26"
    font-weight="500"
    letter-spacing="0.02em"
    fill="#5f6368">The AI-First GCC Platform</text>

</svg>
